<?xml version="1.0" encoding="UTF-8" standalone="no"?>
<svg xmlns:xlink="http://www.w3.org/1999/xlink" height="800.0px" width="800.0px" xmlns="http://www.w3.org/2000/svg">
  <g transform="matrix(1, 0, 0, 1, 0.0, 0.0)">
    <path d="M770.0 400.0 Q770.0 246.75 661.65 138.4 553.25 30.0 400.0 30.0 246.7 30.0 138.35 138.4 30.0 246.75 30.0 400.0 30.0 553.25 138.35 661.65 246.7 770.0 400.0 770.0 553.25 770.0 661.65 661.65 770.0 553.25 770.0 400.0 M682.85 682.85 Q565.65 800.0 400.0 800.0 234.3 800.0 117.15 682.85 -0.05 565.7 0.0 400.0 -0.05 234.3 117.15 117.15 234.3 0.0 400.0 0.0 565.65 0.0 682.85 117.15 800.0 234.3 800.0 400.0 800.0 565.7 682.85 682.85" fill="#ffffff" fill-rule="evenodd" stroke="none"/>
  </g>
</svg>
