<?xml version="1.0" encoding="UTF-8" standalone="no"?>
<svg xmlns:xlink="http://www.w3.org/1999/xlink" height="174.95px" width="432.95px" xmlns="http://www.w3.org/2000/svg">
  <g transform="matrix(1, 0, 0, 1, 0.0, 0.0)">
    <path d="M0.0 87.45 Q0.0 51.25 63.4 25.6 126.8 0.0 216.5 0.0 306.1 0.0 369.55 25.6 432.95 51.25 432.95 87.45 432.95 123.65 369.55 149.25 306.1 174.9 216.5 174.95 126.8 174.9 63.4 149.25 0.0 123.65 0.0 87.45 M117.5 87.5 Q117.5 104.05 146.5 115.75 175.5 127.5 216.5 127.5 257.5 127.5 286.5 115.75 315.5 104.05 315.5 87.5 315.5 70.95 286.5 59.2 257.5 47.5 216.5 47.5 175.5 47.5 146.5 59.2 117.5 70.95 117.5 87.5" fill="#ffffff" fill-rule="evenodd" stroke="none"/>
  </g>
</svg>
