<?xml version="1.0" encoding="UTF-8" standalone="no"?>
<svg xmlns:xlink="http://www.w3.org/1999/xlink" height="69.95px" width="200.5px" xmlns="http://www.w3.org/2000/svg">
  <g transform="matrix(1, 0, 0, 1, -5.0, 5.45)">
    <path d="M199.25 9.35 L205.5 23.0 194.0 12.25 185.5 16.75 171.9 5.15 149.7 29.05 112.9 33.85 97.5 46.8 98.5 46.25 84.85 64.5 42.6 55.65 40.35 38.25 20.75 36.0 21.75 26.55 12.5 27.0 5.0 41.25 10.75 18.0 21.35 18.0 10.0 -0.5 25.0 0.0 29.0 14.25 27.75 30.0 45.75 36.2 47.6 53.35 77.85 57.2 85.2 53.3 79.85 40.9 85.85 33.75 83.0 41.0 90.7 50.25 114.05 23.05 140.0 25.75 140.0 1.0 151.3 -5.45 142.75 5.05 145.2 22.65 175.9 -2.15 186.0 9.25 199.25 9.35 M90.6 50.45 L90.55 50.4 90.5 50.5 90.6 50.45" fill="#333333" fill-rule="evenodd" stroke="none"/>
  </g>
</svg>
