<?xml version="1.0" encoding="UTF-8" standalone="no"?>
<svg xmlns:xlink="http://www.w3.org/1999/xlink" height="72.2px" width="338.1px" xmlns="http://www.w3.org/2000/svg">
  <g transform="matrix(1, 0, 0, 1, -5.0, 7.6)">
    <path d="M343.1 55.95 L331.0 63.35 315.2 52.25 287.0 63.45 279.8 47.25 260.6 37.8 240.5 23.1 205.5 23.1 193.0 13.6 184.75 17.6 171.65 5.75 148.7 30.15 112.4 34.95 99.0 47.65 84.85 64.6 42.6 55.75 40.35 38.35 20.75 36.1 21.75 26.65 12.5 27.1 5.0 41.35 10.75 18.1 21.35 18.1 10.0 -0.4 25.0 0.1 29.0 14.35 27.75 30.1 45.75 36.3 47.6 53.45 77.85 57.3 85.2 53.4 79.85 41.0 85.85 33.85 83.0 41.1 90.7 50.35 114.05 23.15 138.75 24.6 138.75 0.1 153.05 -7.6 143.5 4.15 145.95 20.75 175.65 -3.3 186.25 8.6 199.25 9.45 205.1 19.05 243.5 15.7 260.45 25.6 270.85 14.3 270.9 14.35 291.8 23.0 298.0 35.6 311.2 35.6 295.4 40.8 291.0 27.1 271.45 23.15 259.55 28.95 262.4 35.4 284.35 43.9 288.15 58.7 320.0 48.35 329.7 59.05 343.1 55.95" fill="#333333" fill-rule="evenodd" stroke="none"/>
  </g>
</svg>
