<?xml version="1.0" encoding="UTF-8" standalone="no"?>
<svg xmlns:xlink="http://www.w3.org/1999/xlink" height="17.5px" width="17.5px" xmlns="http://www.w3.org/2000/svg">
  <g transform="matrix(1, 0, 0, 1, 8.75, 8.75)">
    <path d="M0.05 -2.55 L0.0 -2.7 0.0 -2.5 -0.6 -2.1 Q-1.25 -1.4 -1.25 -0.45 -1.25 0.5 -0.6 1.15 0.1 1.85 1.05 1.85 2.0 1.85 2.65 1.15 3.35 0.5 3.35 -0.45 L3.35 -0.65 Q3.25 -1.5 2.65 -2.1 2.0 -2.75 1.05 -2.75 L0.05 -2.55 M6.15 -6.25 Q8.75 -3.65 8.75 0.0 8.75 3.65 6.15 6.15 3.65 8.75 0.0 8.75 -3.65 8.75 -6.25 6.15 -8.75 3.65 -8.75 0.0 -8.75 -3.65 -6.25 -6.25 -3.65 -8.75 0.0 -8.75 3.65 -8.75 6.15 -6.25" fill="#ffffff" fill-rule="evenodd" stroke="none"/>
  </g>
</svg>
