<?xml version="1.0" encoding="UTF-8" standalone="no"?>
<svg xmlns:xlink="http://www.w3.org/1999/xlink" height="21.25px" width="21.25px" xmlns="http://www.w3.org/2000/svg">
  <g transform="matrix(1, 0, 0, 1, 10.45, 10.75)">
    <path d="M6.85 -2.0 Q6.7 -3.8 5.4 -5.1 4.0 -6.5 2.0 -6.45 L-0.2 -6.05 -0.25 -6.0 -1.5 -5.1 Q-2.9 -3.6 -2.9 -1.6 -2.9 0.4 -1.5 1.8 -0.05 3.3 2.0 3.3 4.0 3.3 5.4 1.8 6.85 0.4 6.85 -1.6 L6.85 -2.0 M7.6 -7.75 Q10.8 -4.6 10.8 -0.15 10.8 4.3 7.6 7.3 4.6 10.5 0.15 10.5 -4.3 10.5 -7.45 7.3 -10.5 4.3 -10.45 -0.15 -10.5 -4.6 -7.45 -7.75 -4.3 -10.8 0.15 -10.75 4.6 -10.8 7.6 -7.75" fill="#ffffff" fill-rule="evenodd" stroke="none"/>
  </g>
</svg>
