<?xml version="1.0" encoding="UTF-8" standalone="no"?>
<svg xmlns:xlink="http://www.w3.org/1999/xlink" height="25.5px" width="25.5px" xmlns="http://www.w3.org/2000/svg">
  <g transform="matrix(1, 0, 0, 1, 12.7, 12.75)">
    <path d="M10.15 -2.35 L10.15 -3.05 Q9.85 -6.0 7.65 -8.2 5.35 -10.5 2.0 -10.5 0.05 -10.5 -1.6 -9.75 L-1.7 -9.7 -3.85 -8.2 Q-6.15 -5.75 -6.1 -2.35 -6.15 1.0 -3.85 3.3 -1.35 5.75 2.0 5.75 5.35 5.75 7.65 3.3 10.1 1.0 10.15 -2.35 M12.8 0.0 Q12.8 5.3 9.0 8.9 5.35 12.75 0.05 12.75 -5.3 12.75 -9.1 8.9 -12.75 5.3 -12.7 0.0 -12.75 -5.35 -9.1 -9.15 -5.3 -12.8 0.05 -12.75 5.35 -12.8 9.0 -9.15 12.8 -5.35 12.8 0.0" fill="#ffffff" fill-rule="evenodd" stroke="none"/>
  </g>
</svg>
