<?xml version="1.0" encoding="UTF-8" standalone="no"?>
<svg xmlns:xlink="http://www.w3.org/1999/xlink" height="25.5px" width="25.5px" xmlns="http://www.w3.org/2000/svg">
  <g transform="matrix(1, 0, 0, 1, 12.7, 12.75)">
    <path d="M1.5 -12.7 Q-0.65 -12.6 -2.55 -11.75 L-2.7 -11.65 Q-4.15 -10.95 -5.45 -9.7 -8.45 -6.5 -8.45 -2.1 -8.45 2.3 -5.45 5.35 -2.25 8.55 2.2 8.55 6.55 8.55 9.55 5.35 12.4 2.7 12.75 -1.0 L12.8 0.0 Q12.8 5.3 9.0 8.9 5.35 12.75 0.05 12.75 -5.3 12.75 -9.1 8.9 -12.75 5.3 -12.7 0.0 -12.75 -5.35 -9.1 -9.15 -5.3 -12.8 0.05 -12.75 L1.5 -12.7" fill="#ffffff" fill-rule="evenodd" stroke="none"/>
  </g>
</svg>
